<?xml version="1.0" encoding="iso-8859-1"?>
<!-- Generator: Adobe Illustrator 18.0.0, SVG Export Plug-In . SVG Version: 6.00 Build 0)  -->
<!DOCTYPE svg PUBLIC "-//W3C//DTD SVG 1.1//EN" "http://www.w3.org/Graphics/SVG/1.1/DTD/svg11.dtd">
<svg version="1.1" id="Capa_1" xmlns="http://www.w3.org/2000/svg" xmlns:xlink="http://www.w3.org/1999/xlink" x="0px" y="0px"
	 viewBox="0 0 457.241 457.241" style="enable-background:new 0 0 457.241 457.241;" xml:space="preserve">
<g>
	<path d="M453.491,132.764L232.38,5.107c-2.32-1.339-5.179-1.34-7.5,0L3.75,132.753C1.429,134.092,0,136.569,0,139.249l0.022,178.64
		c0,2.678,1.429,5.153,3.748,6.493l221.093,127.75c1.161,0.671,2.457,1.006,3.752,1.006c1.294,0,2.59-0.335,3.75-1.005
		l221.126-127.653c2.321-1.34,3.75-3.816,3.75-6.495V139.259C457.241,136.579,455.812,134.103,453.491,132.764z M228.63,258.26
		l-95.573-55.179l206.129-118.99l95.555,55.168L228.63,258.26z M228.629,20.263l95.556,55.168l-206.129,118.99l-95.558-55.17
		L228.629,20.263z M15.001,152.243l206.128,119.008l-0.018,161.39L15.021,313.56L15.001,152.243z M442.241,313.655L236.112,432.651
		l0.018-161.4l206.112-119.002V313.655z"/>
	<path d="M169.181,327.776L124.958,225.49c-1.025-2.37-3.196-4.046-5.748-4.437c-2.551-0.391-5.126,0.558-6.813,2.512
		l-44.223,51.222c-1.46,1.692-2.09,3.948-1.718,6.152s1.709,4.127,3.645,5.245l18.361,10.601v46.728c0,2.679,1.43,5.156,3.75,6.495
		l44.223,25.532c1.16,0.67,2.455,1.005,3.75,1.005c1.296,0,2.591-0.335,3.752-1.006c2.321-1.341,3.75-3.819,3.748-6.5l-0.028-38.078
		l10.889,6.287c2.802,1.617,6.324,1.257,8.738-0.895C169.7,334.201,170.464,330.744,169.181,327.776z M143.898,311.469
		c-2.321-1.34-5.181-1.34-7.502,0.001c-2.321,1.341-3.75,3.819-3.748,6.5l0.028,38.078l-29.213-16.866v-46.728
		c0-2.679-1.43-5.156-3.75-6.495l-14.259-8.232l30.482-35.307l30.482,70.504L143.898,311.469z"/>
	<path d="M289.975,336.352c2.416,2.151,5.938,2.511,8.738,0.895l10.889-6.287l-0.028,38.078c-0.002,2.68,1.427,5.158,3.748,6.499
		c1.161,0.671,2.457,1.006,3.752,1.006c1.295,0,2.59-0.335,3.75-1.005l44.222-25.532c2.32-1.34,3.75-3.816,3.75-6.495v-46.728
		l18.361-10.601c1.936-1.118,3.272-3.041,3.645-5.245s-0.257-4.46-1.718-6.152l-44.223-51.222c-1.686-1.954-4.259-2.904-6.813-2.512
		c-2.552,0.391-4.723,2.067-5.748,4.437l-44.222,102.286C286.796,330.744,287.56,334.201,289.975,336.352z M341.324,242.42
		l30.482,35.307l-14.259,8.232c-2.32,1.34-3.75,3.816-3.75,6.495v46.728l-29.213,16.866l0.028-38.078
		c0.002-2.68-1.427-5.158-3.748-6.499c-1.161-0.671-2.457-1.006-3.752-1.006c-1.295,0-2.59,0.335-3.75,1.005l-2.52,1.455
		L341.324,242.42z"/>
</g>
<g>
</g>
<g>
</g>
<g>
</g>
<g>
</g>
<g>
</g>
<g>
</g>
<g>
</g>
<g>
</g>
<g>
</g>
<g>
</g>
<g>
</g>
<g>
</g>
<g>
</g>
<g>
</g>
<g>
</g>
</svg>
